<?xml version="1.0" encoding="UTF-8"?>
<svg version="1.1" xmlns="http://www.w3.org/2000/svg" width="1024" height="1024">
<path d="M0 0 C3.53370176 0.00679834 7.06736166 -0.004 10.60105404 -0.01239584 C16.77513107 -0.02469099 22.94913203 -0.02600639 29.12321713 -0.01984541 C38.30497119 -0.01070791 47.4866556 -0.01882346 56.66840434 -0.03013665 C73.07392785 -0.04975362 89.47941968 -0.05216048 105.88495212 -0.04694145 C120.24524217 -0.04237561 134.60551972 -0.04299423 148.96580937 -0.04878179 C150.89573069 -0.04953868 152.82565201 -0.05029466 154.75557333 -0.05104974 C157.6641812 -0.052195 160.57278907 -0.05334488 163.48139694 -0.05450898 C190.50622911 -0.06520654 217.53105714 -0.06994695 244.55589058 -0.06203882 C245.5735791 -0.06174165 246.59126762 -0.06144447 247.63979519 -0.0611383 C255.90291782 -0.05868963 264.1660404 -0.05607791 272.42916297 -0.05345416 C304.6495046 -0.04335474 336.86979409 -0.0517044 369.09012845 -0.07494871 C405.3341489 -0.1010538 441.57813799 -0.11386049 477.82216819 -0.10676096 C481.69100195 -0.10604496 485.55983571 -0.10537056 489.42866948 -0.10472052 C490.38119403 -0.10455071 491.33371858 -0.1043809 492.31510751 -0.10420594 C506.65816829 -0.10190843 521.00119982 -0.10985375 535.34425404 -0.12301199 C551.66752721 -0.13796066 567.9907321 -0.13871651 584.31400387 -0.12094108 C593.43377719 -0.11141727 602.55339099 -0.11273219 611.67315347 -0.13017577 C617.78334489 -0.14073776 623.89341597 -0.13646417 630.00359571 -0.12069573 C633.47268493 -0.11214152 636.94146386 -0.10944439 640.41053604 -0.12496505 C683.96040696 -0.27938588 724.76342639 10.30148805 759.53177884 37.39160402 C760.35033352 38.00648684 761.16888821 38.62136965 762.01224759 39.25488527 C799.69596971 68.61512263 823.27228498 111.46861401 830.53177884 158.39160402 C830.78656177 159.83813045 830.78656177 159.83813045 831.04649183 161.31387963 C831.78274015 166.53228554 831.67317147 171.76436458 831.66599991 177.02435454 C831.66835214 178.19697247 831.67070437 179.3695904 831.67312788 180.57774221 C831.67863947 183.83398641 831.67969101 187.09019682 831.67885047 190.34644446 C831.67902035 193.88878572 831.68493074 197.43111822 831.69009134 200.97345509 C831.69940915 208.0002319 831.70333801 215.02700241 831.7056103 222.05378463 C831.70857461 230.47079247 831.71727352 238.88779197 831.72602458 247.30479543 C831.74686337 267.65216832 831.7573389 287.99954265 831.76615419 308.34692371 C831.77036254 317.97755296 831.77558436 327.60818159 831.78083872 337.23881032 C831.79873071 370.21991304 831.81372465 403.20101594 831.82115891 436.18212278 C831.82163366 438.25256609 831.82210955 440.32300939 831.82258657 442.3934527 C831.82294114 443.93355607 831.82294114 443.93355607 831.82330286 445.50477265 C831.82450404 450.70655173 831.82571949 455.90833081 831.82694485 461.11010988 C831.827185 462.14241229 831.82742515 463.1747147 831.82767258 464.238299 C831.8355599 497.68403569 831.85897911 531.12973686 831.8915008 564.57545806 C831.92583834 599.95340719 831.94551381 635.33133554 831.94880315 670.70930161 C831.94922067 674.59713678 831.94970023 678.48497194 831.95022633 682.3728071 C831.95034952 683.33006988 831.95047271 684.28733266 831.95059964 685.2736034 C831.95292706 700.6470077 831.96856171 716.0203706 831.98906818 731.39376017 C832.00937612 746.86451913 832.0147801 762.33522864 832.00529754 777.80599845 C832.00010146 786.98368816 832.00586993 796.16121261 832.02783221 805.33887836 C832.04142534 811.48684856 832.04018895 817.6347061 832.02743026 823.78267765 C832.02058953 827.27440298 832.0196679 830.76581442 832.03699035 834.25751061 C832.15796099 864.19865852 827.75957439 892.33446166 814.53177884 919.39160402 C814.1603677 920.15360109 813.78895657 920.91559816 813.40629055 921.70068606 C808.01091497 932.63522541 802.08554501 942.81058283 794.53177884 952.39160402 C793.90432766 953.19041994 793.90432766 953.19041994 793.26420071 954.00537356 C768.00732743 985.76926571 734.35383748 1008.50820932 695.09427884 1019.14160402 C694.41711819 1019.32811525 693.73995755 1019.51462648 693.04227688 1019.70678957 C675.45041368 1024.19794328 658.18343918 1024.83503557 640.10974409 1024.78320805 C636.56508012 1024.77641722 633.02045817 1024.7872044 629.47580358 1024.79560389 C623.28095878 1024.80790591 617.08618979 1024.80921141 610.89133694 1024.80305346 C601.67873899 1024.79392046 592.46621051 1024.80202795 583.25361787 1024.8133447 C566.79351728 1024.83296703 550.33344825 1024.83536749 533.87333876 1024.8301495 C519.46532922 1024.82558455 505.05733215 1024.82620116 490.64932301 1024.83198984 C488.7133664 1024.83274672 486.77740979 1024.8335027 484.84145318 1024.83425779 C481.92378742 1024.83540304 479.00612167 1024.83655292 476.08845591 1024.83771703 C448.9775308 1024.84841543 421.86660982 1024.85315414 394.75568345 1024.84524687 C393.22411523 1024.84480111 393.22411523 1024.84480111 391.66160625 1024.84434634 C383.3711032 1024.84189765 375.0806002 1024.83928594 366.7900972 1024.83666221 C334.46251627 1024.82656269 302.13498729 1024.83491228 269.8074136 1024.85815676 C233.44694762 1024.884259 197.08651292 1024.89706929 160.72603723 1024.88996901 C156.84512932 1024.889253 152.96422141 1024.88857861 149.08331349 1024.88792856 C148.12780871 1024.88775875 147.17230394 1024.88758895 146.18784448 1024.88741399 C131.79672799 1024.88511599 117.40564064 1024.89306414 103.01453068 1024.90622004 C86.63740598 1024.92116523 70.26034933 1024.92192918 53.88322604 1024.90414913 C44.73214278 1024.8946217 35.58121849 1024.89594775 26.43014602 1024.91338381 C20.3003252 1024.92393945 14.17062438 1024.91968093 8.04081521 1024.90390378 C4.559677 1024.89534289 1.0788482 1024.89266952 -2.40227312 1024.90817309 C-46.02154196 1025.06217331 -85.42289544 1013.85264911 -120.46822116 987.39160402 C-121.36798679 986.7187134 -122.26775241 986.04582277 -123.19478366 985.35254152 C-142.6512934 970.12826352 -158.65272808 951.04110999 -170.46822116 929.39160402 C-170.9837656 928.45115236 -170.9837656 928.45115236 -171.50972507 927.49170168 C-179.88287076 912.00668658 -185.83596123 895.60728524 -189.46822116 878.39160402 C-189.6052979 877.74239842 -189.74237464 877.09319281 -189.88360523 876.42431431 C-192.80579842 861.97195115 -192.90196543 847.66266198 -192.85982519 832.96336792 C-192.8530344 829.41781534 -192.86382152 825.87230477 -192.87222103 822.32676156 C-192.88452305 816.13038642 -192.88582855 809.93408707 -192.8796706 803.73770388 C-192.87053765 794.52288383 -192.87864503 785.30813323 -192.88996184 776.09331848 C-192.90958395 759.62953738 -192.9119847 743.16578784 -192.90676664 726.70199784 C-192.90220182 712.2913975 -192.90281815 697.88080962 -192.90860698 683.47020968 C-192.90936386 681.53396143 -192.91011984 679.59771318 -192.91087493 677.66146493 C-192.91202018 674.74337298 -192.91317006 671.82528103 -192.91433417 668.90718909 C-192.92503245 641.79269059 -192.92977136 614.67819623 -192.92186401 587.56369646 C-192.92156684 586.54252577 -192.92126966 585.52135508 -192.92096348 584.46923982 C-192.91851478 576.17769135 -192.91590308 567.88614292 -192.91327935 559.59459451 C-192.90317903 527.26030972 -192.911531 494.92607688 -192.9347739 462.59179934 C-192.96087341 426.22511701 -192.97368722 389.85846595 -192.96658615 353.49177392 C-192.96587014 349.6106031 -192.96519574 345.72943227 -192.9645457 341.84826143 C-192.96437589 340.89268924 -192.96420609 339.93711704 -192.96403113 338.95258811 C-192.96173274 324.55792212 -192.96968312 310.16328527 -192.98283718 295.76862581 C-192.99777894 279.38891067 -192.99855082 263.00926358 -192.98076627 246.62954985 C-192.97123552 237.47603456 -192.97257179 228.32267819 -192.99000095 219.16917367 C-193.00055068 213.03900806 -192.9963062 206.90896252 -192.98052092 200.77880859 C-192.97195385 197.29665325 -192.96930241 193.81480741 -192.98479023 190.33266889 C-193.0892429 160.71541981 -188.65720984 132.16102097 -175.46822116 105.39160402 C-175.09681003 104.63105715 -174.7253989 103.87051027 -174.34273288 103.08691652 C-168.93499245 92.12510073 -162.93992693 82.06229962 -155.46822116 72.39160402 C-154.80951023 71.50988527 -154.15079929 70.62816652 -153.47212741 69.71972902 C-123.93893572 31.72380989 -79.77631727 7.50634151 -32.33196817 1.00615163 C-21.60650327 -0.25823709 -10.78288409 -0.03106147 0 0 Z " fill="#015BB8" transform="translate(192.4682211643085,-0.3916040239855647)"/>
<path d="M0 0 C0 32.67 0 65.34 0 99 C-12.21 99 -24.42 99 -37 99 C-37 87.12 -37 75.24 -37 63 C-40.444375 65.02125 -43.88875 67.0425 -47.4375 69.125 C-56.07388881 74.17711208 -64.75680334 79.13467797 -73.5 84 C-82.97799737 89.27546106 -92.3786314 94.66961478 -101.73193359 100.16308594 C-106.43881506 102.92740752 -111.15545955 105.6609383 -115.9296875 108.30712891 C-123.14391032 112.319417 -129.77320882 116.92896453 -136.40087891 121.82568359 C-137.84327703 122.88491031 -139.30160867 123.92235636 -140.76171875 124.95703125 C-157.54463813 136.87315488 -172.63846971 150.52073282 -187.09960938 165.11621094 C-192.44299066 170.49287489 -197.93231557 175.44923668 -204 180 C-215.91042558 175.23582977 -227.4353335 169.55103992 -239 164 C-239.33 188.75 -239.66 213.5 -240 239 C-252.21 239 -264.42 239 -277 239 C-277 195.11 -277 151.22 -277 106 C-267.83961478 110.58019261 -258.78747925 115.15631368 -249.78125 120 C-245.23722843 122.42347817 -240.62659138 124.70968257 -236.00463867 126.98022461 C-232.56464047 128.67978516 -229.1773579 130.43647216 -225.83203125 132.31640625 C-225.15720703 132.69216797 -224.48238281 133.06792969 -223.78710938 133.45507812 C-222.50412851 134.17461339 -221.22759013 134.90580327 -219.95898438 135.65039062 C-217.34864145 137.10834136 -215.5550038 138.04604907 -212.53125 137.79516602 C-209.62029382 136.88071923 -208.38884035 135.84080516 -206.29296875 133.6484375 C-205.62330078 132.96136719 -204.95363281 132.27429688 -204.26367188 131.56640625 C-203.57853516 130.84324219 -202.89339844 130.12007812 -202.1875 129.375 C-196.99147872 123.97511569 -191.70927985 118.85628937 -186 114 C-184.97866416 113.11125423 -183.95779155 112.22197569 -182.9375 111.33203125 C-174.5746225 104.15908446 -165.90833242 97.48088093 -157 91 C-155.94296875 90.22914063 -154.8859375 89.45828125 -153.796875 88.6640625 C-140.13026107 78.95726235 -125.44598149 70.77428631 -110.87939453 62.51391602 C-104.65488094 58.97502092 -98.50254524 55.32895531 -92.375 51.625 C-86.5194408 48.08672809 -80.65133303 44.63107656 -74.61328125 41.41015625 C-70.87794417 39.39452593 -67.20389565 37.27416179 -63.52392578 35.15991211 C-60.46635061 33.40515485 -57.40366209 31.66145637 -54.32421875 29.9453125 C-46.52209906 25.59612729 -38.80328651 21.12721342 -31.125 16.5625 C-24.04339043 12.35864162 -16.93728041 8.2084841 -9.75 4.1875 C-8.99348145 3.76090088 -8.23696289 3.33430176 -7.45751953 2.89477539 C-2.24097524 0 -2.24097524 0 0 0 Z " fill="#FBFCFD" transform="translate(682,270)"/>
<path d="M0 0 C36.63 0 73.26 0 111 0 C111 28.71 111 57.42 111 87 C107.04 88.98 103.08 90.96 99 93 C97.73671875 93.64324219 96.4734375 94.28648437 95.171875 94.94921875 C76.48240519 104.44329874 57.77992405 112.97199568 37.71679688 119.15527344 C35.19074941 119.94069078 32.68105647 120.76412056 30.171875 121.6015625 C28.71924205 122.06923945 27.2661495 122.53549237 25.8125 123 C24.60207031 123.391875 23.39164063 123.78375 22.14453125 124.1875 C11.24284694 126.79815195 0.32309981 124.37966376 -10.375 122 C-11.83651614 121.68577991 -13.29835841 121.37307348 -14.76049805 121.06176758 C-17.86901181 120.39887437 -20.97615267 119.730008 -24.08251953 119.05712891 C-31.79964002 117.39135289 -39.532409 115.80092055 -47.26568604 114.2121582 C-49.7493657 113.70050603 -52.23191804 113.18365659 -54.71435547 112.66601562 C-63.45099987 110.85530338 -72.16433742 109.2591316 -81 108 C-81.20326233 100.58063705 -81.34311359 93.16199456 -81.43945312 85.74047852 C-81.47962252 83.21741913 -81.53417058 80.69454525 -81.60351562 78.17211914 C-81.70084761 74.54006167 -81.74599414 70.91046977 -81.78125 67.27734375 C-81.82254028 66.15416245 -81.86383057 65.03098114 -81.90637207 63.87376404 C-81.91075807 56.17548776 -81.91075807 56.17548776 -79.30639648 52.81411743 C-77.2861238 51.0397016 -75.2234503 49.50814338 -73 48 C-71.65740533 46.77045367 -70.32150538 45.53343535 -69 44.28125 C-68.34 43.65863281 -67.68 43.03601563 -67 42.39453125 C-66.34 41.76933594 -65.68 41.14414062 -65 40.5 C-60.33755417 36.08342534 -55.62895442 31.75150335 -50.76171875 27.56054688 C-48.97739549 26.0267679 -48.97739549 26.0267679 -47.39453125 24.29882812 C-46 23 -46 23 -44 23 C-44 42.14 -44 61.28 -44 81 C-40.04 81.33 -36.08 81.66 -32 82 C-29.24179664 82.42943558 -26.48965119 82.90232522 -23.75 83.4375 C-23.06164062 83.57091797 -22.37328125 83.70433594 -21.6640625 83.84179688 C-18.4201471 84.48009582 -15.19727898 85.1582385 -12 86 C-2.65215184 88.45667279 7.30279747 90.79083982 17 90 C17.75667969 89.94585937 18.51335937 89.89171875 19.29296875 89.8359375 C23.35906384 89.46815 27.05242423 88.74655372 30.97851562 87.58447266 C33.2140505 86.93811148 35.46154656 86.35477376 37.71484375 85.7734375 C48.07238891 83.03100718 57.4280798 79.76228065 66.84765625 74.63671875 C70 73 70 73 74 72 C74 59.79 74 47.58 74 35 C49.58 35 25.16 35 0 35 C0 23.45 0 11.9 0 0 Z " fill="#FBFCFD" transform="translate(571,402)"/>
<path d="M0 0 C3.4831439 1.39325756 6.24296676 2.62255314 9.38671875 4.51171875 C10.65044312 5.26594116 10.65044312 5.26594116 11.93969727 6.03540039 C12.84647217 6.58059326 13.75324707 7.12578613 14.6875 7.6875 C23.11057515 12.7082274 31.5654326 17.66797752 40.0625 22.5625 C41.16021729 23.19494629 42.25793457 23.82739258 43.38891602 24.47900391 C50.12545909 28.3556985 56.87273173 32.21328111 63.625 36.0625 C72.01922755 40.84773926 80.37039424 45.70413062 88.71191406 50.58056641 C99.32788707 56.78367168 109.98004804 62.92345693 120.63427734 69.06054688 C124.1489325 71.08582038 127.66255469 73.11287479 131.17578125 75.140625 C131.76593018 75.48122452 132.3560791 75.82182404 132.96411133 76.17274475 C135.79692756 77.80769907 138.62969 79.44274655 141.46240234 81.07788086 C146.63541404 84.06287833 151.81129233 87.04236324 157 90 C157 90.66 157 91.32 157 92 C155.24136092 93.36409223 153.41296542 94.63833645 151.5625 95.875 C150.3821211 96.67215425 149.20247301 97.47039138 148.0234375 98.26953125 C147.38245117 98.70217285 146.74146484 99.13481445 146.08105469 99.58056641 C142.2499091 102.19369175 138.47161352 104.88193681 134.6875 107.5625 C133.21225411 108.6054893 131.73699489 109.64845974 130.26171875 110.69140625 C129.18535156 111.45324219 128.10898437 112.21507812 127 113 C118.11538511 108.70964749 109.56779492 103.88214748 101 99 C99.93523437 98.39542969 98.87046875 97.79085937 97.7734375 97.16796875 C92.2211983 94.00608563 86.68399451 90.81881847 81.15234375 87.62109375 C78.95576548 86.35149966 76.75914968 85.08197053 74.5625 83.8125 C72.89876343 82.85089966 72.89876343 82.85089966 71.20141602 81.86987305 C62.53876648 76.87048644 53.84277155 71.9324553 45.12133789 67.03637695 C44.22664795 66.53323975 43.33195801 66.03010254 42.41015625 65.51171875 C41.62777588 65.07303467 40.84539551 64.63435059 40.03930664 64.18237305 C38.32061032 63.1858872 36.65301844 62.1020123 35 61 C35 120.4 35 179.8 35 241 C23.45 241 11.9 241 0 241 C0 161.47 0 81.94 0 0 Z " fill="#FAFBFD" transform="translate(342,271)"/>
<path d="M0 0 C13.12011644 -0.18763766 26.23989967 -0.32863763 39.36109829 -0.41449738 C45.45777633 -0.45576325 51.55351859 -0.51147026 57.6496582 -0.60351562 C84.34432029 -0.99581371 109.22714389 -0.97870247 134.86141968 7.03808594 C139.20552611 8.3694704 143.5962474 9.39672742 148.02734375 10.390625 C149.3877102 10.70948867 150.7477546 11.02973049 152.10742188 11.3515625 C153.37134766 11.64804687 154.63527344 11.94453125 155.9375 12.25 C157.85914725 12.70337208 159.78075748 13.15689923 161.70227051 13.61083984 C163.72405335 14.08424354 165.74928036 14.54288201 167.7749176 14.99951172 C170.39206141 15.60020676 172.92681279 16.27358002 175.50682068 17.03515625 C190.77383248 21.18747145 206.42260898 20.61144925 222.11445475 20.60750484 C226.27045368 20.61066967 230.42631772 20.63636067 234.58224487 20.65948486 C242.42273896 20.69977856 250.26315046 20.7203223 258.10373199 20.73345876 C267.04238403 20.74941994 275.9808973 20.78787301 284.91946816 20.82805204 C303.27960474 20.91008578 321.63972005 20.96360738 340 21 C340 26.28 340 31.56 340 37 C317.10260966 37.11608583 294.20529099 37.20514682 271.30766487 37.25906086 C260.67424584 37.28476713 250.0410138 37.31977167 239.40771484 37.37719727 C230.13229483 37.4272654 220.85701034 37.45934597 211.58145893 37.47044247 C206.67680688 37.47692184 201.7725423 37.49198945 196.86801529 37.52865028 C192.23699988 37.56298109 187.60652579 37.57297944 182.9753952 37.56553841 C181.28974067 37.5668966 179.60406507 37.5766057 177.91852188 37.59602737 C166.61639038 37.71969694 156.84645852 36.10561884 146.08048463 32.65454853 C142.5888759 31.55604133 139.06111934 30.58679361 135.53515625 29.60546875 C134.12153777 29.20320076 132.70806682 28.80041272 131.29492188 28.39648438 C128.50896153 27.60044994 125.72247401 26.80631439 122.93554688 26.01367188 C121.89225975 25.7148259 121.89225975 25.7148259 120.82789612 25.40994263 C119.35532728 24.99082568 117.88090287 24.57818519 116.40489197 24.1713562 C111.97540955 22.93204238 107.66793996 21.53082069 103.35571289 19.92822266 C83.06880327 12.70425537 63.41366667 12.85096648 42.13397217 12.98712158 C37.36592456 13.00888501 32.59810221 12.98463415 27.83007812 12.96484375 C18.55306843 12.9328245 9.27690497 12.94977861 0 13 C0 8.71 0 4.42 0 0 Z " fill="#F8FAFC" transform="translate(342,543)"/>
<path d="M0 0 C16.54316315 -0.06972566 33.08626478 -0.12312561 49.62953949 -0.15543652 C57.31248507 -0.17084403 64.99533714 -0.19181508 72.67822266 -0.22631836 C79.38192676 -0.25640961 86.08556309 -0.27561932 92.78933287 -0.28226548 C96.33232241 -0.2861447 99.87511819 -0.29513023 103.41804504 -0.31719017 C131.64876924 -0.48608859 131.64876924 -0.48608859 145 3 C146.13755737 3.28523026 147.27511475 3.57046051 148.44714355 3.86433411 C150.40773937 4.36305671 152.36683835 4.86770947 154.32421875 5.37890625 C157.43819756 6.10171301 160.48577269 6.47770427 163.671875 6.69140625 C166.42315207 7.05608895 169.05380492 7.75309353 171.73828125 8.44506836 C175.83607015 9.45049519 179.97999329 10.21682629 184.125 11 C185.49736816 11.2616394 185.49736816 11.2616394 186.89746094 11.52856445 C193.43831808 12.75626658 199.97400959 13.77607867 206.578125 14.60546875 C209 15 209 15 210 16 C218.03713764 17.835713 225.98055088 18.30211253 234.19433594 18.31884766 C235.92334641 18.33391609 235.92334641 18.33391609 237.68728638 18.34928894 C241.45297805 18.37989144 245.21859939 18.39709191 248.984375 18.4140625 C251.61281937 18.43279261 254.24125785 18.45236737 256.86968994 18.4727478 C263.05288447 18.51928009 269.23609615 18.55614662 275.4193747 18.58942068 C282.46673248 18.62782422 289.5140007 18.6771857 296.56128263 18.72740483 C311.04078679 18.83034396 325.52035501 18.91933765 340 19 C340 24.28 340 29.56 340 35 C322.59436108 35.18701719 305.18913723 35.3288721 287.78271675 35.41449738 C279.69642577 35.45535186 271.61077896 35.51080569 263.52490234 35.60351562 C256.45844846 35.68449698 249.3924618 35.73515172 242.32555664 35.75270796 C238.60040018 35.76293399 234.87657749 35.78607101 231.15185928 35.84584045 C211.12893428 36.15431492 193.16995897 33.72966331 173.8255564 28.51671934 C166.79676716 26.63645247 159.69450263 25.18357765 152.5625 23.75 C151.32118254 23.49729591 150.07986507 23.24459183 148.80093193 22.98423004 C146.5989248 22.53608216 144.39655741 22.08970106 142.19384766 21.64501953 C137.37651749 20.67212652 132.56224534 19.68521141 127.75 18.6875 C126.96310791 18.52797852 126.17621582 18.36845703 125.36547852 18.20410156 C120.11397361 17.11397361 120.11397361 17.11397361 119 16 C112.62743235 14.96025525 106.34888105 14.83144341 99.90234375 14.79467773 C98.81852921 14.78477814 97.73471466 14.77487854 96.61805725 14.76467896 C93.05789325 14.73324864 89.49771593 14.70837994 85.9375 14.68359375 C83.46028306 14.66300826 80.9830695 14.64201138 78.50585938 14.62062073 C72.00236767 14.56556481 65.49884514 14.51608315 58.99530029 14.46777344 C52.35230751 14.41743774 45.70936046 14.36181481 39.06640625 14.30664062 C26.04430888 14.19926075 13.02217281 14.09777138 0 14 C0 9.38 0 4.76 0 0 Z " fill="#F1F6FA" transform="translate(342,520)"/>
<path d="M0 0 C6.36345761 6.36345761 10.3406364 14.53237859 10.75 23.5 C10.48282307 33.86365254 7.11129359 41.82285542 -0.1171875 49.2421875 C-9.51905576 57.23816891 -19.68191769 58.10787096 -31.625 57.375 C-34.60288502 56.79705521 -36.97801139 55.83999999 -39.625 54.375 C-40.37394531 53.9728125 -41.12289062 53.570625 -41.89453125 53.15625 C-47.7608802 49.65395212 -51.58492887 45.50981981 -54.625 39.375 C-55.5 35.8125 -55.5 35.8125 -55.625 33.375 C-56.285 33.375 -56.945 33.375 -57.625 33.375 C-58.208052 22.28081618 -57.67516681 12.89954404 -50.375 4.0625 C-35.81976258 -11.01920345 -17.45277948 -10.80410158 0 0 Z " fill="#F7FAFC" transform="translate(562.625,639.625)"/>
<path d="M0 0 C5.094375 -0.04125 10.18875 -0.0825 15.4375 -0.125 C17.82053345 -0.15231201 17.82053345 -0.15231201 20.25170898 -0.18017578 C33.60843148 -0.23242619 42.78124675 1.33376797 52.859375 10.734375 C59.45881195 17.85653963 60.59518363 24.96501752 60.33984375 34.53515625 C59.52873918 42.80469365 56.08707125 49.01006988 50.41796875 55.01953125 C36.40278086 66.49885316 16.5259618 63 0 63 C0 42.21 0 21.42 0 0 Z " fill="#F9FBFD" transform="translate(738,633)"/>
<path d="M0 0 C5.259375 -0.04125 10.51875 -0.0825 15.9375 -0.125 C17.578396 -0.14320801 19.21929199 -0.16141602 20.90991211 -0.18017578 C40.52927589 -0.25455972 40.52927589 -0.25455972 48 6 C52.9927649 12.61204001 53.62286297 17.91410613 53 26 C51.78677214 31.1395007 48.98296628 34.59990683 45 38 C42.6875 39.3125 42.6875 39.3125 41 40 C43.06825555 44.71233225 46.31788737 48.67145399 49.3671875 52.77929688 C51.77420794 56.08004828 53.69135054 59.08148714 55 63 C44.16428017 64.3018644 44.16428017 64.3018644 39 63 C34.54509583 59.37998271 32.24305637 54.65352775 29.83984375 49.5234375 C28.70003148 47.27649574 27.88138022 45.68737699 26 44 C21.85717462 43.00920602 18.3101228 43 14 43 C14 49.6 14 56.2 14 63 C9.38 63 4.76 63 0 63 C0 42.21 0 21.42 0 0 Z " fill="#F8FAFC" transform="translate(439,633)"/>
<path d="M0 0 C4.95 0 9.9 0 15 0 C18.63435236 3.84202964 20.53568904 6.50289245 23 11 C24.22643805 12.94277799 25.48567521 14.86150547 26.74853516 16.78076172 C28.53289295 19.49941844 30.26533511 22.24943183 32 25 C36.63100686 20.84137271 39.55253242 16.1568733 42.6875 10.8125 C43.64724592 9.19253046 44.60937788 7.57397146 45.57421875 5.95703125 C46.20203247 4.88932495 46.20203247 4.88932495 46.8425293 3.80004883 C48 2 48 2 50 0 C54.95 0 59.9 0 65 0 C65 20.79 65 41.58 65 63 C60.38 63 55.76 63 51 63 C50.67 50.46 50.34 37.92 50 25 C44.85805218 32.89101544 44.85805218 32.89101544 39.73901367 40.796875 C39.09681885 41.77140625 38.45462402 42.7459375 37.79296875 43.75 C36.81106567 45.25820313 36.81106567 45.25820313 35.80932617 46.796875 C35.21224854 47.52390625 34.6151709 48.2509375 34 49 C33.01 49 32.02 49 31 49 C29.19067383 46.796875 29.19067383 46.796875 27.20703125 43.75 C26.56483643 42.77546875 25.9226416 41.8009375 25.26098633 40.796875 C24.45298584 39.54390625 23.64498535 38.2909375 22.8125 37 C20.234375 33.04 17.65625 29.08 15 25 C14.67 37.54 14.34 50.08 14 63 C9.38 63 4.76 63 0 63 C0 42.21 0 21.42 0 0 Z " fill="#F7FAFC" transform="translate(219,633)"/>
<path d="M0 0 C14 0 14 0 17.16796875 2.3515625 C17.83441406 3.43179688 18.50085938 4.51203125 19.1875 5.625 C19.97825509 6.82307858 20.77130904 8.01964238 21.56640625 9.21484375 C22.15639404 10.15046143 22.15639404 10.15046143 22.75830078 11.10498047 C24.84532806 14.2900976 27.24251199 17.22084624 29.625 20.1875 C30.47213049 21.26371229 31.31848457 22.34053618 32.1640625 23.41796875 C35.75908489 27.95878904 39.38198357 32.47747946 43 37 C43.33 24.79 43.66 12.58 44 0 C48.62 0 53.24 0 58 0 C58 20.79 58 41.58 58 63 C45 63 45 63 42.18359375 60.90234375 C41.60738281 59.92394531 41.03117188 58.94554687 40.4375 57.9375 C39.73496094 56.844375 39.03242187 55.75125 38.30859375 54.625 C37.94362793 54.03589844 37.57866211 53.44679688 37.20263672 52.83984375 C35.03575258 49.52485412 32.50168863 46.50277107 30 43.4375 C29.06231284 42.2696815 28.12481438 41.10171147 27.1875 39.93359375 C23.14235919 34.94161239 19.06867191 29.97282123 15 25 C14.67 37.54 14.34 50.08 14 63 C9.38 63 4.76 63 0 63 C0 42.21 0 21.42 0 0 Z " fill="#FAFBFD" transform="translate(660,633)"/>
<path d="M0 0 C-1.36370299 2.99220268 -2.94908083 5.29026529 -5.125 7.75 C-5.66382813 8.36359375 -6.20265625 8.9771875 -6.7578125 9.609375 C-7.16773438 10.06828125 -7.57765625 10.5271875 -8 11 C-8.65484375 10.6390625 -9.3096875 10.278125 -9.984375 9.90625 C-17.03585635 6.32075101 -23.09396147 4.62360053 -31 6 C-35.28240055 7.68679764 -38.12751706 9.87421556 -40.9375 13.5 C-43.40641681 19.30921603 -43.89675614 25.78365159 -43 32 C-40.54229451 37.45955242 -36.53560339 41.04109171 -31.0703125 43.37890625 C-24.41124449 45.37662665 -19.21540646 43.66374563 -13 41 C-12.67 38.03 -12.34 35.06 -12 32 C-16.62 32 -21.24 32 -26 32 C-26 28.04 -26 24.08 -26 20 C-16.76 20 -7.52 20 2 20 C2.20625 24.49625 2.4125 28.9925 2.625 33.625 C2.76156006 35.73575928 2.76156006 35.73575928 2.90087891 37.88916016 C2.98077607 41.47834682 2.90020288 44.51666563 2 48 C-4.80397039 55.09015965 -16.19215984 57.1114515 -25.625 57.375 C-35.05412801 57.10750701 -42.82418918 54.22984706 -50 48 C-52.36424671 45.1721755 -54.22316038 42.22336932 -56 39 C-56.61875 37.906875 -57.2375 36.81375 -57.875 35.6875 C-61.15937403 24.92205179 -58.42492096 15.46929515 -53.3125 5.8125 C-38.96658499 -11.63523447 -18.15292218 -12.51413982 0 0 Z " fill="#F7F9FC" transform="translate(420,640)"/>
<path d="M0 0 C4.62 0 9.24 0 14 0 C14.0093457 1.16982422 14.01869141 2.33964844 14.02832031 3.54492188 C14.06840062 7.913789 14.13420859 12.28196523 14.20751953 16.65039062 C14.23562497 18.53571654 14.25689106 20.42115799 14.27099609 22.30664062 C14.29257089 25.027941 14.33929349 27.74786731 14.390625 30.46875 C14.39185364 31.30241089 14.39308228 32.13607178 14.39434814 32.99499512 C14.53208659 38.58472783 15.50866425 43.481559 19 48 C23.73383335 50.88136198 28.61906676 50.48772203 34 50 C37.0745356 49.2236068 37.0745356 49.2236068 39 47 C41.66767249 41.06693285 42.46087051 36.14735068 42.51171875 29.6875 C42.52966995 28.83317383 42.54762115 27.97884766 42.56611633 27.09863281 C42.61982618 24.39913714 42.65398739 21.69981418 42.6875 19 C42.7207079 17.15752824 42.75520073 15.31507917 42.79101562 13.47265625 C42.87552943 8.98189631 42.94252656 4.49118408 43 0 C47.62 0 52.24 0 57 0 C57.07458679 5.81662241 57.12880761 11.63296163 57.16479492 17.44995117 C57.17980956 19.42558649 57.20022751 21.40118889 57.22631836 23.37670898 C57.26302572 26.22908695 57.27979993 29.08102129 57.29296875 31.93359375 C57.30845261 32.80584091 57.32393646 33.67808807 57.33988953 34.57676697 C57.34203165 42.51961935 55.54887153 50.01558001 50.65625 56.4296875 C43.24986601 63.45177798 33.56195162 64.55724856 23.83984375 64.33984375 C16.65210078 63.70369559 11.39794074 60.86969106 6.5625 55.5625 C0.63318721 47.84099379 -0.15335212 40.94220305 -0.09765625 31.54296875 C-0.0962413 30.64000565 -0.09482635 29.73704254 -0.09336853 28.80671692 C-0.08778823 25.93361037 -0.07523934 23.06058284 -0.0625 20.1875 C-0.05748245 18.23502717 -0.05291999 16.28255311 -0.04882812 14.33007812 C-0.03782525 9.55335515 -0.02057418 4.77669096 0 0 Z " fill="#F6F9FC" transform="translate(586,633)"/>
<path d="M0 0 C10.82348074 -1.28634405 10.82348074 -1.28634405 16 0 C19.57351801 3.04256125 21.0590036 6.79037097 23 11 C24.41798322 13.43498751 25.92837466 15.80825724 27.4375 18.1875 C28.62584591 20.12448128 29.81365632 22.06179176 31 24 C34.48598238 19.86546275 37.30406487 15.47052934 40.125 10.875 C41.00226466 9.45551929 41.87985629 8.03624059 42.7578125 6.6171875 C43.33233154 5.68302002 43.33233154 5.68302002 43.91845703 4.72998047 C44.91598141 3.13439182 45.95619659 1.56570511 47 0 C49.7885289 -0.22107787 52.34653181 -0.28107535 55.125 -0.1875 C55.87910156 -0.17396484 56.63320313 -0.16042969 57.41015625 -0.14648438 C59.27374127 -0.11109985 61.13695978 -0.05729167 63 0 C58.13449996 10.22246473 51.15226458 22.39704853 43.45361328 30.65966797 C38.03887081 36.77038448 38.10759579 42.58108233 38.125 50.5 C38.104375 51.70398438 38.08375 52.90796875 38.0625 54.1484375 C38.01567107 57.09866025 38.00426386 60.0494087 38 63 C33.38 63 28.76 63 24 63 C24.13535156 60.55013672 24.13535156 60.55013672 24.2734375 58.05078125 C24.71298088 41.14880505 21.22031525 31.43968058 10.78417969 18.29638672 C8.17558602 14.93891108 5.89378265 11.40442461 3.625 7.8125 C2.91601562 6.72582031 2.20703125 5.63914062 1.4765625 4.51953125 C0 2 0 2 0 0 Z " fill="#F8FAFC" transform="translate(295,633)"/>
<path d="M0 0 C5.30990845 2.30171997 9.75166993 5.51969545 12 11 C13.83742977 17.01340651 13.9685312 23.57204547 11.3125 29.3125 C8.64068851 34.06133809 4.95204229 36.84094631 0 39 C-6.17877184 39.90968534 -12.49205508 38.95548264 -18 36 C-22.67778004 31.94003996 -24.70950183 28.37644594 -25.23828125 22.23046875 C-25.43088195 14.3338401 -24.67930648 10.05898922 -19.41015625 4.24609375 C-13.68492273 -0.97076809 -7.43971787 -1.37166959 0 0 Z " fill="#055DB8" transform="translate(545,645)"/>
<path d="M0 0 C19.4 0 19.4 0 26.875 6.5 C31.46594354 11.90111005 31.55703052 16.52274359 31.43359375 23.5078125 C30.78480726 28.73317394 29.01785389 31.66157443 25 35 C17.30573423 40.71760726 9.78387243 39 0 39 C0 26.13 0 13.26 0 0 Z " fill="#085DB6" transform="translate(752,645)"/>
<path d="M0 0 C0 9.24 0 18.48 0 28 C-20.79 28 -41.58 28 -63 28 C-61.7133456 25.42669121 -60.85544501 25.39111055 -58.1875 24.44140625 C-57.37168457 24.14355225 -56.55586914 23.84569824 -55.71533203 23.53881836 C-54.37124268 23.05554077 -54.37124268 23.05554077 -53 22.5625 C-36.1266281 16.31955742 -19.73588041 8.88194301 -3.5 1.14453125 C-1 0 -1 0 0 0 Z " fill="#B98F54" transform="translate(682,501)"/>
<path d="M0 0 C3.41751005 -0.10792137 6.83161597 -0.18727736 10.25 -0.25 C11.70212891 -0.30027344 11.70212891 -0.30027344 13.18359375 -0.3515625 C20.32588054 -0.4500768 20.32588054 -0.4500768 23.64453125 1.765625 C25.75262984 5.24064631 25.67940342 8.06107777 25 12 C23.25746655 15.23613354 22.52814056 15.82395315 19 17 C17.51876453 17.0806622 16.03417796 17.10761193 14.55078125 17.09765625 C13.70322266 17.09443359 12.85566406 17.09121094 11.98242188 17.08789062 C10.66081055 17.07532227 10.66081055 17.07532227 9.3125 17.0625 C8.41982422 17.05798828 7.52714844 17.05347656 6.60742188 17.04882812 C4.40491927 17.03705004 2.20245115 17.01911481 0 17 C0 11.39 0 5.78 0 0 Z " fill="#045DB9" transform="translate(453,646)"/>
<path d="M0 0 C0.66 0.33 1.32 0.66 2 1 C0.375 3 0.375 3 -2 5 C-5.25 5.25 -5.25 5.25 -8 5 C-2.6 1.4 -2.6 1.4 0 0 Z " fill="#1B6FC3" transform="translate(633,691)"/>
</svg>
